# xmcd
# 
# Track frame offsets:
#     150
#     21217
#     38353
#     52909
#     63343
#     83674
#     96650
#     120640
#     145406
#     160168
#     180267
#     214283
# 
# Disc length: 2868
# 
# Revision: 0
# Processed by: cddbd v1.5.2PL0 Copyright (c) Steve Scherf et al.
# Submitted via: fre:ac v1.0.17
# 
DISCID=9a0b320c
DTITLE=Bob Kirkpatrick - Feeling the Blues
DYEAR=1973
DGENRE=Blues
TTITLE0=Watergate Blues
TTITLE1=I Don't Know Why
TTITLE2=Everyday
TTITLE3=I Need Your Love So Bad
TTITLE4=I Been Down So Long
TTITLE5=I Got Love
TTITLE6=Sweet Little Angel
TTITLE7=Old Friend of Mine
TTITLE8=Big Feet
TTITLE9=When the Sun Rose This Morning
TTITLE10=Stormy Monday
TTITLE11=Data track
EXTD=New version is a CD-R.
EXTT0=
EXTT1=
EXTT2=
EXTT3=
EXTT4=
EXTT5=
EXTT6=
EXTT7=
EXTT8=
EXTT9=
EXTT10=
EXTT11=
PLAYORDER=
